HIERARCHY
ROOT root
{
	OFFSET 0.000000 0.000000 0.000000
	CHANNELS 6 Xposition Yposition Zposition Zrotation Yrotation Xrotation
	JOINT lhip
	{
		OFFSET 0.058581 -0.082280 -0.017664
		CHANNELS 3 Zrotation Yrotation Xrotation
		JOINT lknee
		{
			OFFSET 0.043451 -0.386469 0.008037
			CHANNELS 3 Zrotation Yrotation Xrotation
			JOINT lankle
			{
				OFFSET -0.014790 -0.426874 -0.037428
				CHANNELS 3 Zrotation Yrotation Xrotation
				JOINT ltoe
				{
					OFFSET 0.041054 -0.060286 0.122042
					CHANNELS 3 Zrotation Yrotation Xrotation
					End Site
					{
						OFFSET 0.000000 0.000000 0.000000
					}
				}
			}
		}
	}
	JOINT rhip
	{
		OFFSET -0.060310 -0.090513 -0.013543
		CHANNELS 3 Zrotation Yrotation Xrotation
		JOINT rknee
		{
			OFFSET -0.043257 -0.383688 -0.004843
			CHANNELS 3 Zrotation Yrotation Xrotation
			JOINT rankle
			{
				OFFSET 0.019056 -0.420046 -0.034562
				CHANNELS 3 Zrotation Yrotation Xrotation
				JOINT rtoe
				{
					OFFSET -0.034840 -0.062106 0.130323
					CHANNELS 3 Zrotation Yrotation Xrotation
					End Site
					{
						OFFSET 0.000000 0.000000 0.000000
					}
				}
			}
		}
	}
	JOINT lowerback
	{
		OFFSET 0.004439 0.124404 -0.038385
		CHANNELS 3 Zrotation Yrotation Xrotation
		JOINT upperback
		{
			OFFSET 0.004488 0.137956 0.026820
			CHANNELS 3 Zrotation Yrotation Xrotation
			JOINT chest
			{
				OFFSET -0.002265 0.056032 0.002855
				CHANNELS 3 Zrotation Yrotation Xrotation
				JOINT lowerneck
				{
					OFFSET -0.013390 0.211636 -0.033468
					CHANNELS 3 Zrotation Yrotation Xrotation
					JOINT upperneck
					{
						OFFSET 0.010113 0.088937 0.050410
						CHANNELS 3 Zrotation Yrotation Xrotation
						End Site
						{
							OFFSET 0.000000 0.000000 0.000000
						}
					}
				}
				JOINT lclavicle
				{
					OFFSET 0.071702 0.114000 -0.018898
					CHANNELS 3 Zrotation Yrotation Xrotation
					JOINT lshoulder
					{
						OFFSET 0.122921 0.045205 -0.019046
						CHANNELS 3 Zrotation Yrotation Xrotation
						JOINT lelbow
						{
							OFFSET 0.255332 -0.015649 -0.022946
							CHANNELS 3 Zrotation Yrotation Xrotation
							JOINT lwrist
							{
								OFFSET 0.265709 0.012698 -0.007375
								CHANNELS 3 Zrotation Yrotation Xrotation
								End Site
								{
									OFFSET 0.000000 0.000000 0.000000
								}
							}
						}
					}
				}
				JOINT rclavicle
				{
					OFFSET -0.082954 0.112472 -0.023707
					CHANNELS 3 Zrotation Yrotation Xrotation
					JOINT rshoulder
					{
						OFFSET -0.113228 0.046853 -0.008472
						CHANNELS 3 Zrotation Yrotation Xrotation
						JOINT relbow
						{
							OFFSET -0.260127 -0.014369 -0.031269
							CHANNELS 3 Zrotation Yrotation Xrotation
							JOINT rwrist
							{
								OFFSET -0.269108 0.006794 -0.006027
								CHANNELS 3 Zrotation Yrotation Xrotation
								End Site
								{
									OFFSET 0.000000 0.000000 0.000000
								}
							}
						}
					}
				}
			}
		}
	}
}
MOTION
Frames: 7
Frame Time: 0.033333
0.506378 0.262848 1.003343 91.535719 2.764084 96.980044 6.641250 -1.605965 -7.278915 4.144500 9.602191 -0.540898 -4.116559 -0.323621 -4.011501 0.000000 -0.000000 0.000000 -0.263612 3.110867 -12.090168 -6.702998 -8.575690 10.055406 5.104169 2.756656 -6.799484 0.000000 -0.000000 0.000000 -1.096079 2.075334 -6.976907 -0.041403 -4.167157 7.898047 2.333181 3.409741 -8.490320 -6.257751 1.120839 32.256910 12.294233 7.483841 -11.070555 -2.092144 -34.350030 5.160479 -76.586600 -28.341414 20.385058 169.337624 -46.228321 -134.268935 34.521535 -6.720056 -19.936793 -4.419193 34.297718 10.087803 87.461944 29.677692 23.093672 -168.272780 49.088720 -128.562633 -45.332317 11.333058 -4.408474 
0.504459 0.262583 1.003888 91.787993 2.767218 96.863156 6.699363 -1.741239 -7.433280 4.164406 9.530549 -0.274213 -4.139954 -0.413358 -4.077833 0.000000 -0.000000 0.000000 -0.212622 3.211283 -12.034927 -6.754207 -8.746098 10.146950 5.024890 2.655825 -6.741607 0.000000 -0.000000 0.000000 -1.148476 2.186663 -6.446961 -0.167967 -4.099400 8.204104 2.374376 3.316778 -8.572312 -6.476874 0.709572 32.158545 12.688006 7.434980 -11.745550 -1.716234 -35.218260 5.084106 -76.790971 -28.812058 20.155782 168.743504 -45.513155 -133.628356 34.146098 -6.480896 -20.680750 -5.414768 35.152238 9.510409 88.348089 29.987446 23.174925 -167.806867 48.386903 -127.535260 -44.269896 11.417076 -4.291269 
0.502025 0.262147 1.004150 91.953563 2.742430 96.670247 6.713731 -1.857553 -7.670313 4.253929 9.533269 0.265887 -4.168479 -0.527274 -4.189701 0.000000 -0.000000 0.000000 -0.179239 3.315146 -12.027960 -6.841573 -8.923223 10.339423 4.962741 2.646641 -6.728493 0.000000 -0.000000 0.000000 -1.313057 2.552797 -5.743330 -0.256870 -4.081806 8.677198 2.334851 3.273030 -8.687236 -6.092755 0.604423 32.266370 13.346291 7.277800 -12.157048 -1.252316 -36.376099 5.260801 -77.134300 -29.369443 20.075879 168.070482 -44.850142 -132.820649 34.270189 -6.364872 -21.212010 -5.807604 35.692679 9.144722 89.773426 29.871754 23.244049 -167.577349 47.554977 -126.508656 -42.303601 11.633950 -4.610697 
0.499028 0.261690 1.004387 92.052987 2.789483 96.587790 6.852384 -2.115396 -8.150119 4.330924 9.766928 1.026857 -4.079464 -0.717189 -4.425577 0.000000 -0.000000 0.000000 -0.104194 3.451019 -12.246591 -6.918090 -9.091265 10.625873 4.900012 2.679254 -6.702300 0.000000 -0.000000 0.000000 -1.496048 2.512024 -5.047249 -0.234993 -4.072994 9.261567 2.658671 3.416187 -8.544400 -6.227427 0.278349 32.204492 13.453849 7.804639 -13.076979 -0.797296 -36.781423 4.721870 -78.005597 -29.666549 20.348886 167.903202 -44.246944 -132.258745 34.249659 -5.966964 -21.816724 -7.084019 36.495381 8.355189 90.142737 30.372010 23.555197 -167.505810 46.820206 -125.855481 -42.997689 11.421995 -4.337210 
0.495840 0.261201 1.004853 92.111926 2.784384 96.540670 6.932665 -2.273540 -8.709345 4.402338 10.022291 1.831288 -4.127410 -0.977484 -4.524236 0.000000 -0.000000 0.000000 -0.093044 3.535946 -12.584886 -7.086238 -9.468533 11.052510 4.907725 3.042067 -6.612789 0.000000 -0.000000 0.000000 -1.689956 2.669356 -4.246377 -0.268056 -4.057344 9.600928 2.903478 3.515076 -8.430581 -6.239150 0.319977 32.570337 13.949852 7.927658 -14.360418 0.577042 -37.382854 4.146759 -79.713844 -30.126406 20.573279 167.386093 -43.789996 -130.733799 34.208979 -5.351963 -22.116428 -8.989622 37.033411 7.384944 91.421110 30.735933 23.528215 -167.281145 46.334437 -124.605073 -43.032470 10.652570 -4.827309 
0.492543 0.260759 1.005664 92.275716 2.812659 96.434415 7.005479 -2.384719 -9.185093 4.503505 10.169409 2.541337 -4.204727 -1.273830 -4.500517 0.000000 -0.000000 0.000000 -0.036620 3.550008 -12.805938 -7.237826 -9.779576 11.407879 4.889230 3.256831 -6.362593 0.000000 -0.000000 0.000000 -1.735552 2.732086 -3.361077 -0.371818 -4.145729 10.198954 3.101254 3.556440 -8.525752 -6.490532 0.298455 32.600357 14.294075 8.459297 -15.132400 1.961524 -38.242843 3.489671 -81.171532 -30.617438 20.329952 166.815267 -43.251815 -129.196963 33.561237 -4.978131 -22.313170 -10.867064 37.816468 6.398956 93.453336 30.867833 23.414828 -166.504667 45.579019 -122.853144 -40.729479 10.613575 -5.314246 
0.489301 0.260434 1.006127 92.438269 2.849718 96.439829 7.070451 -2.366960 -9.787607 4.622440 10.250432 3.248431 -4.275356 -1.692960 -4.553489 0.000000 -0.000000 0.000000 0.036443 3.591492 -13.131343 -7.407569 -10.078530 11.712723 4.835993 3.442809 -6.252930 0.000000 -0.000000 0.000000 -1.688796 2.707171 -2.415746 -0.442021 -4.193505 10.428895 3.342318 3.613243 -8.621088 -6.907920 0.180472 32.983128 14.479620 8.916506 -16.235991 3.537142 -38.818875 2.705901 -82.538045 -30.903941 20.274675 166.490746 -42.832744 -127.988197 33.726146 -4.500676 -22.765526 -12.772474 38.569754 5.541524 94.854173 31.142940 23.331480 -166.057776 44.931643 -121.646830 -40.341865 10.247971 -5.742508 
